<svg xmlns="http://www.w3.org/2000/svg" version="1.1" width="24px" height="24px" style="shape-rendering:geometricPrecision; text-rendering:geometricPrecision; image-rendering:optimizeQuality; fill-rule:evenodd; clip-rule:evenodd" xmlns:xlink="http://www.w3.org/1999/xlink">
<g><path style="opacity:0.965" fill="#6314ff" d="M 243.5,7.5 C 285.87,4.41106 313.037,23.0777 325,63.5C 327.344,75.992 326.677,88.3253 323,100.5C 318.27,110.292 313.27,119.959 308,129.5C 302.819,145.436 300.152,161.769 300,178.5C 298.093,182.41 295.427,185.744 292,188.5C 291.876,197.087 288.376,203.754 281.5,208.5C 280.675,224.926 272.008,232.593 255.5,231.5C 238.945,232.578 230.279,224.911 229.5,208.5C 222.624,203.754 219.124,197.087 219,188.5C 215.573,185.744 212.907,182.41 211,178.5C 210.848,161.769 208.181,145.436 203,129.5C 197.73,119.959 192.73,110.292 188,100.5C 178.802,65.4152 188.969,37.5818 218.5,17C 226.515,12.6452 234.848,9.47854 243.5,7.5 Z M 245.5,24.5 C 283.439,22.6137 304.772,40.4471 309.5,78C 309.356,82.2096 308.856,86.3763 308,90.5C 302.606,102.289 296.939,113.956 291,125.5C 288.107,134.297 286.107,143.297 285,152.5C 281.606,153.456 278.106,153.789 274.5,153.5C 274.5,136.167 274.5,118.833 274.5,101.5C 291.631,103.021 301.298,95.3539 303.5,78.5C 301.718,61.7599 292.384,54.2599 275.5,56C 262.091,60.6223 256.091,70.1223 257.5,84.5C 256.167,84.5 254.833,84.5 253.5,84.5C 254.143,64.3079 244.476,54.8079 224.5,56C 211.17,60.8137 205.67,70.3137 208,84.5C 212.881,97.6975 222.381,103.364 236.5,101.5C 236.5,118.833 236.5,136.167 236.5,153.5C 232.894,153.789 229.394,153.456 226,152.5C 224.973,144.363 223.306,136.363 221,128.5C 216.545,117.383 211.211,106.716 205,96.5C 197.402,70.6278 204.236,49.4612 225.5,33C 231.92,29.282 238.586,26.4487 245.5,24.5 Z M 227.5,72.5 C 230.157,72.162 232.49,72.8287 234.5,74.5C 236.184,77.6124 236.85,80.9457 236.5,84.5C 232.161,85.1539 228.327,84.1539 225,81.5C 223.927,77.9003 224.76,74.9003 227.5,72.5 Z M 278.5,72.5 C 284.82,72.3196 287.32,75.3196 286,81.5C 282.673,84.1539 278.839,85.1539 274.5,84.5C 273.741,79.6866 275.075,75.6866 278.5,72.5 Z M 253.5,101.5 C 254.833,101.5 256.167,101.5 257.5,101.5C 257.5,118.833 257.5,136.167 257.5,153.5C 256.167,153.5 254.833,153.5 253.5,153.5C 253.5,136.167 253.5,118.833 253.5,101.5 Z M 226.5,170.5 C 245.845,170.167 265.178,170.5 284.5,171.5C 284.291,172.086 283.957,172.586 283.5,173C 264.833,173.667 246.167,173.667 227.5,173C 226.748,172.329 226.414,171.496 226.5,170.5 Z M 236.5,190.5 C 249.184,190.168 261.851,190.501 274.5,191.5C 274.291,192.086 273.957,192.586 273.5,193C 261.5,193.667 249.5,193.667 237.5,193C 236.748,192.329 236.414,191.496 236.5,190.5 Z M 247.5,210.5 C 252.833,210.5 258.167,210.5 263.5,210.5C 263.719,211.675 263.386,212.675 262.5,213.5C 258.223,214.606 253.89,214.772 249.5,214C 248.027,213.29 247.36,212.124 247.5,210.5 Z"/></g>
<g><path style="opacity:0.946" fill="#6314ff" d="M 158.5,25.5 C 166.93,27.1308 174.43,30.7975 181,36.5C 183.841,46.6616 180.008,50.8283 169.5,49C 164.667,46.1667 159.833,43.3333 155,40.5C 151.018,34.2348 152.185,29.2348 158.5,25.5 Z"/></g>
<g><path style="opacity:0.944" fill="#6314ff" d="M 347.5,25.5 C 357.077,26.0608 360.077,30.7274 356.5,39.5C 351.634,42.8642 346.634,46.0309 341.5,49C 330.992,50.8283 327.159,46.6616 330,36.5C 335.509,32.1704 341.343,28.5038 347.5,25.5 Z"/></g>
<g><path style="opacity:0.967" fill="#6414ff" d="M 142.5,80.5 C 150.174,80.3336 157.841,80.5003 165.5,81C 170.008,85.0532 170.674,89.7199 167.5,95C 159.296,97.9135 150.963,98.2468 142.5,96C 139.484,94.4714 138.151,91.9714 138.5,88.5C 138.667,87.1667 138.833,85.8333 139,84.5C 140.376,83.2949 141.542,81.9616 142.5,80.5 Z"/></g>
<g><path style="opacity:0.973" fill="#6414ff" d="M 345.5,80.5 C 353.174,80.3336 360.841,80.5003 368.5,81C 373.008,85.0532 373.674,89.7199 370.5,95C 362.296,97.9135 353.963,98.2468 345.5,96C 342.484,94.4714 341.151,91.9714 341.5,88.5C 341.667,87.1667 341.833,85.8333 342,84.5C 343.376,83.2949 344.542,81.9616 345.5,80.5 Z"/></g>
<g><path style="opacity:0.943" fill="#6314ff" d="M 170.5,127.5 C 180.562,126.718 184.062,131.052 181,140.5C 175.923,144.624 170.423,148.124 164.5,151C 154.252,151.679 150.919,147.179 154.5,137.5C 159.898,134.142 165.231,130.808 170.5,127.5 Z"/></g>
<g><path style="opacity:0.937" fill="#6414ff" d="M 333.5,127.5 C 335.857,127.337 338.19,127.503 340.5,128C 344.833,130.333 349.167,132.667 353.5,135C 360.381,140.89 360.048,146.224 352.5,151C 350.5,151.667 348.5,151.667 346.5,151C 340.577,148.124 335.077,144.624 330,140.5C 327.348,135.039 328.514,130.706 333.5,127.5 Z"/></g>
<g><path style="opacity:0.986" fill="#6314ff" d="M 63.5,162.5 C 83.8435,160.664 96.6768,169.664 102,189.5C 103.757,196.808 103.924,204.141 102.5,211.5C 115.171,211.333 127.838,211.5 140.5,212C 142.333,212.5 143.5,213.667 144,215.5C 144.667,233.833 144.667,252.167 144,270.5C 142.291,273.387 139.791,274.721 136.5,274.5C 130.502,272.336 124.336,270.669 118,269.5C 109.981,269.613 103.314,272.613 98,278.5C 94.7657,284.752 95.9324,290.252 101.5,295C 106.455,297.929 111.788,299.763 117.5,300.5C 124.027,299.433 130.36,297.766 136.5,295.5C 139.43,295.154 141.763,296.154 143.5,298.5C 144.65,313.789 144.817,329.122 144,344.5C 143.5,346.333 142.333,347.5 140.5,348C 97.5,348.667 54.5,348.667 11.5,348C 9.66667,347.5 8.5,346.333 8,344.5C 7.33333,301.5 7.33333,258.5 8,215.5C 8.5,213.667 9.66667,212.5 11.5,212C 20.8274,211.5 30.1607,211.334 39.5,211.5C 36.3923,194.411 41.0589,179.911 53.5,168C 56.7667,165.87 60.1,164.037 63.5,162.5 Z M 66.5,179.5 C 74.7476,178.542 80.581,181.875 84,189.5C 85.2161,193.247 86.0494,197.08 86.5,201C 85.3306,207.336 83.6639,213.502 81.5,219.5C 81.2795,222.791 82.6128,225.291 85.5,227C 99.496,227.5 113.496,227.667 127.5,227.5C 127.5,236.167 127.5,244.833 127.5,253.5C 110.172,250.442 95.6718,255.442 84,268.5C 75.0702,285.582 78.5702,299.749 94.5,311C 104.926,316.345 115.926,318.178 127.5,316.5C 127.5,321.833 127.5,327.167 127.5,332.5C 92.8333,332.5 58.1667,332.5 23.5,332.5C 23.5,297.5 23.5,262.5 23.5,227.5C 34.505,227.667 45.505,227.5 56.5,227C 57.4162,226.626 58.2496,226.126 59,225.5C 60.4833,222.298 60.8166,218.964 60,215.5C 53.1155,201.763 55.2821,189.763 66.5,179.5 Z"/></g>
<g><path style="opacity:0.973" fill="#6314ff" d="M 406.5,172.5 C 415.839,172.334 425.173,172.5 434.5,173C 435.931,173.465 437.097,174.299 438,175.5C 439.309,179.099 440.809,182.599 442.5,186C 446.733,187.369 450.899,188.869 455,190.5C 458.773,189.032 462.607,187.699 466.5,186.5C 468.61,187.054 470.61,187.888 472.5,189C 478.742,194.571 484.242,200.738 489,207.5C 489.667,208.833 489.667,210.167 489,211.5C 487.686,214.624 486.52,217.791 485.5,221C 487.131,225.101 488.631,229.267 490,233.5C 493.401,235.191 496.901,236.691 500.5,238C 502.604,240.042 503.771,242.542 504,245.5C 504.863,253.564 504.53,261.564 503,269.5C 502.535,270.931 501.701,272.097 500.5,273C 496.901,274.309 493.401,275.809 490,277.5C 489.058,280.993 487.725,284.326 486,287.5C 485.333,289.167 485.333,290.833 486,292.5C 489.817,297.372 490.15,302.372 487,307.5C 481.429,313.742 475.262,319.242 468.5,324C 467.167,324.667 465.833,324.667 464.5,324C 461.376,322.686 458.209,321.52 455,320.5C 450.899,322.131 446.733,323.631 442.5,325C 440.809,328.401 439.309,331.901 438,335.5C 437.097,336.701 435.931,337.535 434.5,338C 425.167,338.667 415.833,338.667 406.5,338C 405.069,337.535 403.903,336.701 403,335.5C 401.691,331.901 400.191,328.401 398.5,325C 394.267,323.631 390.101,322.131 386,320.5C 382.227,321.968 378.393,323.301 374.5,324.5C 372.39,323.946 370.39,323.112 368.5,322C 362.258,316.429 356.758,310.262 352,303.5C 351.333,302.167 351.333,300.833 352,299.5C 353.314,296.376 354.48,293.209 355.5,290C 353.869,285.899 352.369,281.733 351,277.5C 347.599,275.809 344.099,274.309 340.5,273C 339.299,272.097 338.465,270.931 338,269.5C 337.333,260.167 337.333,250.833 338,241.5C 338.465,240.069 339.299,238.903 340.5,238C 344.099,236.691 347.599,235.191 351,233.5C 352.369,229.267 353.869,225.101 355.5,221C 354.032,217.227 352.699,213.393 351.5,209.5C 352.054,207.39 352.888,205.39 354,203.5C 359.571,197.258 365.738,191.758 372.5,187C 373.833,186.333 375.167,186.333 376.5,187C 379.624,188.314 382.791,189.48 386,190.5C 390.101,188.869 394.267,187.369 398.5,186C 400.191,182.599 401.691,179.099 403,175.5C 404.145,174.364 405.312,173.364 406.5,172.5 Z M 416.5,188.5 C 419.187,188.336 421.854,188.503 424.5,189C 425.796,191.761 426.963,194.595 428,197.5C 429.214,199.049 430.714,200.215 432.5,201C 439.979,203.547 447.312,206.38 454.5,209.5C 457.8,208.456 460.967,207.123 464,205.5C 466.167,207.667 468.333,209.833 470.5,212C 466.994,216.462 466.161,221.295 468,226.5C 471.482,232.467 474.149,238.801 476,245.5C 479.053,248.081 482.553,249.915 486.5,251C 487.833,254 487.833,257 486.5,260C 482.553,261.085 479.053,262.919 476,265.5C 473.113,273.607 469.947,281.607 466.5,289.5C 467.544,292.8 468.877,295.967 470.5,299C 468.333,301.167 466.167,303.333 464,305.5C 460.967,303.877 457.8,302.544 454.5,301.5C 447.273,304.614 439.939,307.447 432.5,310C 430.714,310.785 429.214,311.951 428,313.5C 426.963,316.405 425.796,319.239 424.5,322C 421.833,322.667 419.167,322.667 416.5,322C 415.204,319.239 414.037,316.405 413,313.5C 411.786,311.951 410.286,310.785 408.5,310C 401.061,307.447 393.727,304.614 386.5,301.5C 383.2,302.544 380.033,303.877 377,305.5C 374.833,303.333 372.667,301.167 370.5,299C 372.123,295.967 373.456,292.8 374.5,289.5C 371.38,282.312 368.547,274.979 366,267.5C 363.524,263.009 359.691,260.676 354.5,260.5C 354.5,257.167 354.5,253.833 354.5,250.5C 359.577,250.098 363.41,247.764 366,243.5C 368.547,236.021 371.38,228.688 374.5,221.5C 373.456,218.2 372.123,215.033 370.5,212C 372.667,209.833 374.833,207.667 377,205.5C 380.033,207.123 383.2,208.456 386.5,209.5C 394.363,206.072 402.363,202.905 410.5,200C 413.158,196.537 415.158,192.704 416.5,188.5 Z M 416.5,228.5 C 434.604,228.606 444.938,237.606 447.5,255.5C 445.5,271.5 436.5,280.5 420.5,282.5C 404.5,280.5 395.5,271.5 393.5,255.5C 395.119,241.223 402.785,232.223 416.5,228.5 Z"/></g>
<g><path style="opacity:0.963" fill="#6414ff" d="M 414.5,211.5 C 450.383,212.545 466.549,230.879 463,266.5C 457.753,285.079 445.586,295.913 426.5,299C 403.888,300.617 388.055,291.117 379,270.5C 372.477,239.518 384.31,219.851 414.5,211.5 Z M 416.5,228.5 C 402.785,232.223 395.119,241.223 393.5,255.5C 395.5,271.5 404.5,280.5 420.5,282.5C 436.5,280.5 445.5,271.5 447.5,255.5C 444.938,237.606 434.604,228.606 416.5,228.5 Z"/></g>
<g><path style="opacity:0.984" fill="#6315ff" d="M 251.5,247.5 C 254.187,247.336 256.854,247.503 259.5,248C 261.333,248.5 262.5,249.667 263,251.5C 263.667,264.5 263.667,277.5 263,290.5C 258,295.833 253,295.833 248,290.5C 247.333,277.5 247.333,264.5 248,251.5C 248.69,249.65 249.856,248.316 251.5,247.5 Z"/></g>
<g><path style="opacity:0.952" fill="#6314ff" d="M 161.5,306.5 C 163.857,306.337 166.19,306.503 168.5,307C 179.083,312.539 189.249,318.705 199,325.5C 201.71,334.921 198.21,339.087 188.5,338C 177.917,332.461 167.751,326.295 158,319.5C 155.676,314.167 156.843,309.833 161.5,306.5 Z"/></g>
<g><path style="opacity:0.953" fill="#6414ff" d="M 342.5,306.5 C 352.186,305.881 355.686,310.214 353,319.5C 343.249,326.295 333.083,332.461 322.5,338C 312.79,339.087 309.29,334.921 312,325.5C 313.167,324.333 314.333,323.167 315.5,322C 324.668,316.97 333.668,311.803 342.5,306.5 Z"/></g>
<g><path style="opacity:0.974" fill="#6314ff" d="M 245.5,312.5 C 271.01,309.674 290.51,319.007 304,340.5C 315.852,367.412 311.018,390.745 289.5,410.5C 327.958,425.969 349.958,454.302 355.5,495.5C 355.352,498.63 354.018,501.13 351.5,503C 287.5,503.667 223.5,503.667 159.5,503C 156.982,501.13 155.648,498.63 155.5,495.5C 161.042,454.302 183.042,425.969 221.5,410.5C 199.981,390.74 195.147,367.407 207,340.5C 215.796,325.527 228.629,316.193 245.5,312.5 Z M 247.5,329.5 C 271.851,327.249 287.017,337.915 293,361.5C 294.173,383.324 284.34,397.491 263.5,404C 241.854,406.594 227.021,397.761 219,377.5C 214.991,353.367 224.491,337.367 247.5,329.5 Z M 254.5,421.5 C 291.432,423.372 317.599,441.039 333,474.5C 334.684,478.716 335.851,483.049 336.5,487.5C 282.5,487.5 228.5,487.5 174.5,487.5C 181.152,459.34 197.819,439.507 224.5,428C 234.326,424.337 244.326,422.17 254.5,421.5 Z"/></g>
</svg>
