<svg version="1.1" id="Layer_1_1_" xmlns="http://www.w3.org/2000/svg" xmlns:xlink="http://www.w3.org/1999/xlink" x="0px" y="0px" viewBox="0 0 64 64" style="enable-background:new 0 0 64 64;" xml:space="preserve">
<path d="M2,62h60V22H2V62z M45,43c0-2.209,1.791-4,4-4h1c-1.657,0-3-1.343-3-3s1.343-3,3-3s3,1.343,3,3s-1.343,3-3,3h1
	c2.209,0,4,1.791,4,4v5l-2,1v8h-6v-8l-2-1V43z M33,43c0-2.209,1.791-4,4-4h1c-1.657,0-3-1.343-3-3s1.343-3,3-3s3,1.343,3,3
	s-1.343,3-3,3h1c2.209,0,4,1.791,4,4v5l-2,1v8h-6v-8l-2-1V43z M21,43c0-2.209,1.791-4,4-4h1c-1.657,0-3-1.343-3-3s1.343-3,3-3
	s3,1.343,3,3s-1.343,3-3,3h1c2.209,0,4,1.791,4,4v5l-2,1v8h-6v-8l-2-1V43z M9,43c0-2.209,1.791-4,4-4h1c-1.657,0-3-1.343-3-3
	s1.343-3,3-3s3,1.343,3,3s-1.343,3-3,3h1c2.209,0,4,1.791,4,4v5l-2,1v8h-6v-8l-2-1V43z" id="id_101" style="fill: rgb(100, 21, 255);"></path>
<path d="M43,15h3.442C46.796,16.276,47,17.613,47,19h2c0-9.374-7.626-17-17-17S15,9.626,15,19h2c0-1.387,0.204-2.724,0.558-4H21v-2
	h-2.739c0.853-1.945,2.111-3.667,3.661-5.078l2.199,2.199l1.414-1.414L23.49,6.662c2.162-1.496,4.734-2.427,7.51-2.611V7h2V4.051
	c2.671,0.177,5.154,1.045,7.263,2.443l-1.799,1.799l1.414,1.414l1.982-1.982c1.651,1.445,2.986,3.24,3.878,5.275H43V15z" id="id_102" style="fill: rgb(100, 21, 255);"></path>
<path d="M38.504,11.132l-4.553,2.6c-0.609-0.524-1.42-0.809-2.282-0.714c-1.647,0.183-2.833,1.666-2.651,3.312
	c0.183,1.647,1.666,2.833,3.312,2.651s2.833-1.666,2.651-3.312c-0.008-0.069-0.03-0.131-0.042-0.198l4.557-2.603L38.504,11.132z" id="id_103" style="fill: rgb(100, 21, 255);"></path>
</svg>