<svg id="Layer_1" data-name="Layer 1" xmlns="http://www.w3.org/2000/svg" viewBox="0 0 64 64"><path d="M32,11a18.9,18.9,0,0,0-12.688,4.9l-4.283-4.283,2.829-2.828L16.444,7.373,13.615,10.2,7.083,3.669l5.028.457.181-1.992L4.513,1.427A1,1,0,0,0,3.427,2.514l.707,7.778,1.992-.182L5.669,5.083,12.2,11.615,9.373,14.443l1.414,1.414,2.828-2.828L17.9,17.312A18.948,18.948,0,0,0,31,48.949V54.5H26v2h5V63h2V56.5h5v-2H33V48.949A18.948,18.948,0,0,0,46.1,17.312L58.331,5.083l-.457,5.027,1.992.182.707-7.778a1,1,0,0,0-.289-.8.984.984,0,0,0-.8-.289l-7.779.707.181,1.992,5.028-.457L44.688,15.9A18.9,18.9,0,0,0,32,11ZM49,30A17,17,0,1,1,32,13,17.019,17.019,0,0,1,49,30Z" id="id_103" style="fill: rgb(100, 21, 255);"></path><path d="M39.341,20.761A3.027,3.027,0,0,0,36.4,17a3.042,3.042,0,0,0-2.834,1.964l-1.533,4.09A3.014,3.014,0,0,1,29.228,25H27a1,1,0,0,0-1-1H20a1,1,0,0,0-1,1V38a1,1,0,0,0,1,1h6a1,1,0,0,0,1-1h.481l.861.751A1,1,0,0,0,29,39H41.5a2.484,2.484,0,0,0,2.329-3.39,2.465,2.465,0,0,0,1-3,2.465,2.465,0,0,0,1-3A2.5,2.5,0,0,0,44.5,25H38.281ZM25,37H21V26h4ZM44.5,27a.5.5,0,0,1,0,1H40v2h3.5a.5.5,0,0,1,0,1H40v2h2.5a.5.5,0,0,1,0,1H40v2h1.5a.5.5,0,0,1,0,1H29.375l-.861-.751A1,1,0,0,0,27.857,36H27V27h2.228a5.024,5.024,0,0,0,4.682-3.244l1.533-4.089a1.066,1.066,0,0,1,1.77-.272,1.015,1.015,0,0,1,.187.881l-1.37,5.482A1,1,0,0,0,37,27Z" id="id_104" style="fill: rgb(100, 21, 255);"></path></svg>