<?xml version="1.0" encoding="UTF-8"?>
<!DOCTYPE svg PUBLIC "-//W3C//DTD SVG 1.1//EN" "http://www.w3.org/Graphics/SVG/1.1/DTD/svg11.dtd">
<svg xmlns="http://www.w3.org/2000/svg" version="1.1" width="512px" height="512px" style="shape-rendering:geometricPrecision; text-rendering:geometricPrecision; image-rendering:optimizeQuality; fill-rule:evenodd; clip-rule:evenodd" xmlns:xlink="http://www.w3.org/1999/xlink">
<g><path style="opacity:0.991" fill="#000000" d="M 117.5,35.5 C 130.286,35.0237 142.62,37.1904 154.5,42C 169.846,48.4203 184.346,56.2536 198,65.5C 245.994,52.1964 293.994,52.1964 342,65.5C 361.652,50.9256 383.486,41.0923 407.5,36C 412.419,35.1985 417.252,35.3651 422,36.5C 431.8,60.937 432.967,85.7704 425.5,111C 451.13,142.013 460.297,177.513 453,217.5C 445.218,275.616 412.718,311.116 355.5,324C 345.06,325.904 334.726,327.904 324.5,330C 333.858,340.719 339.358,353.219 341,367.5C 341.333,399.167 341.667,430.833 342,462.5C 342.504,466.02 344.337,468.52 347.5,470C 351.77,471.254 356.104,472.254 360.5,473C 300.169,474.102 239.836,474.435 179.5,474C 184.056,473.891 188.389,472.891 192.5,471C 194.81,469.363 196.31,467.196 197,464.5C 197.667,447.167 197.667,429.833 197,412.5C 179.033,416.474 161.033,416.474 143,412.5C 127.627,408.122 115.293,399.455 106,386.5C 101.743,378.319 97.7435,369.986 94,361.5C 88.6411,352.469 82.1411,344.302 74.5,337C 68.4325,333.601 62.9325,329.435 58,324.5C 54.9972,319.155 56.4972,315.989 62.5,315C 81.9036,314.116 97.7369,321.283 110,336.5C 129.666,373.114 158.833,383.447 197.5,367.5C 199.628,353.078 205.628,340.578 215.5,330C 184.592,327.476 156.258,317.809 130.5,301C 103.418,278.674 88.5849,249.841 86,214.5C 81.0399,184.826 85.7066,156.826 100,130.5C 104.07,123.76 108.904,117.593 114.5,112C 105.82,86.1488 106.82,60.6488 117.5,35.5 Z"/></g>
</svg>
