<?xml version="1.0" encoding="UTF-8"?>
<!DOCTYPE svg PUBLIC "-//W3C//DTD SVG 1.1//EN" "http://www.w3.org/Graphics/SVG/1.1/DTD/svg11.dtd">
<svg xmlns="http://www.w3.org/2000/svg" version="1.1" width="512px" height="512px" style="shape-rendering:geometricPrecision; text-rendering:geometricPrecision; image-rendering:optimizeQuality; fill-rule:evenodd; clip-rule:evenodd" xmlns:xlink="http://www.w3.org/1999/xlink">
<g><path style="opacity:0.98" fill="#000000" d="M 61.5,25.5 C 83.7776,22.1842 102.944,28.1842 119,43.5C 134.381,65.1733 135.381,87.5066 122,110.5C 112.492,122.677 99.9915,129.844 84.5,132C 57.5709,136.372 36.4042,127.539 21,105.5C 9.39073,79.4063 13.8907,56.5729 34.5,37C 42.7129,31.1027 51.7129,27.2694 61.5,25.5 Z"/></g>
<g><path style="opacity:0.988" fill="#000000" d="M 363.5,167.5 C 433.793,163.643 476.627,195.976 492,264.5C 493.374,272.118 494.374,279.785 495,287.5C 495.5,353.166 495.667,418.832 495.5,484.5C 460.833,484.5 426.167,484.5 391.5,484.5C 391.667,423.832 391.5,363.166 391,302.5C 386.432,260.65 363.599,243.816 322.5,252C 303.606,259.896 291.439,273.729 286,293.5C 284.529,357.142 284.029,420.808 284.5,484.5C 249.833,484.5 215.167,484.5 180.5,484.5C 180.5,381.167 180.5,277.833 180.5,174.5C 215.167,174.5 249.833,174.5 284.5,174.5C 284.333,188.837 284.5,203.171 285,217.5C 305.168,191.337 331.335,174.67 363.5,167.5 Z"/></g>
<g><path style="opacity:0.988" fill="#000000" d="M 20.5,174.5 C 55.1667,174.5 89.8333,174.5 124.5,174.5C 124.5,277.833 124.5,381.167 124.5,484.5C 89.8333,484.5 55.1667,484.5 20.5,484.5C 20.5,381.167 20.5,277.833 20.5,174.5 Z"/></g>
</svg>
